<?xml version="1.0" encoding="utf-8"?>
<!-- Generator: Adobe Illustrator 22.1.0, SVG Export Plug-In . SVG Version: 6.00 Build 0)  -->
<svg version="1.1" id="Layer_1" xmlns="http://www.w3.org/2000/svg" xmlns:xlink="http://www.w3.org/1999/xlink" x="0px" y="0px"
	 viewBox="0 0 1000 1000" style="enable-background:new 0 0 1000 1000;" xml:space="preserve">
<style type="text/css">
	.st0{clip-path:url(#SVGID_2_);}
	.st1{clip-path:url(#SVGID_4_);}
	.st2{opacity:0.26;clip-path:url(#SVGID_6_);}
	.st3{clip-path:url(#SVGID_8_);}
	.st4{clip-path:url(#SVGID_6_);fill:#FFFFFF;}
	.st5{clip-path:url(#SVGID_6_);fill:#5B5B5B;}
	.st6{clip-path:url(#SVGID_6_);fill:#FEFEFE;}
	.st7{clip-path:url(#SVGID_6_);fill:#3DD6FC;}
	.st8{clip-path:url(#SVGID_6_);fill:#FE3649;}
	.st9{clip-path:url(#SVGID_6_);fill:#FE9429;}
	.st10{clip-path:url(#SVGID_6_);fill:#FE9A0E;}
	.st11{clip-path:url(#SVGID_6_);fill:#FE701E;}
	.st12{clip-path:url(#SVGID_6_);fill:#FE7320;}
	.st13{clip-path:url(#SVGID_6_);fill:#FE4B5A;}
	.st14{clip-path:url(#SVGID_6_);fill:#FE8591;}
	.st15{clip-path:url(#SVGID_6_);fill:#FE9EA7;}
	.st16{clip-path:url(#SVGID_6_);fill:#FECA95;}
	.st17{clip-path:url(#SVGID_6_);fill:#FEBD7C;}
	.st18{clip-path:url(#SVGID_6_);fill:#FEB48A;}
	.st19{clip-path:url(#SVGID_6_);fill:#FEDE1C;}
	.st20{clip-path:url(#SVGID_6_);fill:#732EFE;}
	.st21{clip-path:url(#SVGID_6_);fill:#FE304E;}
	.st22{clip-path:url(#SVGID_6_);fill:#FE344B;}
	.st23{clip-path:url(#SVGID_6_);fill:#FE2F50;}
	.st24{clip-path:url(#SVGID_6_);fill:#FEE017;}
	.st25{clip-path:url(#SVGID_6_);fill:#FE2D52;}
	.st26{clip-path:url(#SVGID_6_);fill:#FE334D;}
	.st27{clip-path:url(#SVGID_6_);fill:#FE2FD3;}
	.st28{clip-path:url(#SVGID_6_);fill:#2EFEA0;}
	.st29{clip-path:url(#SVGID_6_);fill:#FEA90F;}
	.st30{clip-path:url(#SVGID_6_);fill:#DB2CF5;}
	.st31{clip-path:url(#SVGID_6_);fill:#4661FE;}
	.st32{clip-path:url(#SVGID_6_);fill:#FEE213;}
	.st33{clip-path:url(#SVGID_6_);fill:#DBFB16;}
	.st34{clip-path:url(#SVGID_6_);fill:#2EC9FE;}
	.st35{clip-path:url(#SVGID_6_);fill:#FEEE11;}
	.st36{clip-path:url(#SVGID_6_);fill:#2DE0F0;}
	.st37{clip-path:url(#SVGID_6_);fill:#A8FE14;}
	.st38{clip-path:url(#SVGID_6_);fill:#FEA60B;}
	.st39{clip-path:url(#SVGID_6_);fill:#F73BF2;}
	.st40{clip-path:url(#SVGID_6_);fill:#FE3846;}
	.st41{clip-path:url(#SVGID_6_);fill:#6643FE;}
	.st42{clip-path:url(#SVGID_6_);fill:#6B3CFE;}
	.st43{clip-path:url(#SVGID_6_);fill:#F93DF0;}
	.st44{clip-path:url(#SVGID_6_);fill:#FE3DEC;}
	.st45{clip-path:url(#SVGID_6_);fill:#3DFE8F;}
	.st46{clip-path:url(#SVGID_6_);fill:#FEF633;}
	.st47{clip-path:url(#SVGID_6_);fill:#6CFE3A;}
	.st48{clip-path:url(#SVGID_6_);fill:#FEF735;}
	.st49{clip-path:url(#SVGID_6_);fill:#FEC02C;}
	.st50{clip-path:url(#SVGID_6_);fill:#FEBE2A;}
	.st51{clip-path:url(#SVGID_6_);fill:#FED336;}
	.st52{clip-path:url(#SVGID_6_);fill:#F7F939;}
	.st53{clip-path:url(#SVGID_6_);fill:#FEC32F;}
	.st54{clip-path:url(#SVGID_6_);fill:#F58984;}
	.st55{clip-path:url(#SVGID_6_);fill:#FE961C;}
	.st56{clip-path:url(#SVGID_6_);fill:#FE9911;}
	.st57{clip-path:url(#SVGID_6_);fill:#FE5C07;}
	.st58{clip-path:url(#SVGID_6_);fill:#FE6814;}
	.st59{clip-path:url(#SVGID_6_);fill:#FE5F0A;}
	.st60{clip-path:url(#SVGID_6_);fill:#FE6B17;}
	.st61{clip-path:url(#SVGID_6_);fill:#FE6E1B;}
	.st62{clip-path:url(#SVGID_6_);fill:#FE610F;}
	.st63{clip-path:url(#SVGID_6_);fill:#3CD8FB;}
	.st64{clip-path:url(#SVGID_6_);fill:#3CD3FE;}
	.st65{clip-path:url(#SVGID_6_);fill:#3DFE93;}
	.st66{clip-path:url(#SVGID_6_);fill:#FE38E2;}
	.st67{clip-path:url(#SVGID_6_);fill:#FE39E5;}
	.st68{clip-path:url(#SVGID_6_);fill:#FEBC28;}
	.st69{clip-path:url(#SVGID_6_);fill:#FE9526;}
	.st70{clip-path:url(#SVGID_6_);fill:#FEDE1F;}
	.st71{clip-path:url(#SVGID_6_);fill:#FEAB13;}
	.st72{clip-path:url(#SVGID_6_);fill:#FEEF16;}
	.st73{clip-path:url(#SVGID_6_);fill:#FEF01A;}
	.st74{clip-path:url(#SVGID_6_);fill:#7130FE;}
	.st75{clip-path:url(#SVGID_6_);fill:#DE2DF5;}
	.st76{clip-path:url(#SVGID_6_);fill:#495FFE;}
	.st77{clip-path:url(#SVGID_6_);fill:#4A5DFE;}
	.st78{clip-path:url(#SVGID_6_);fill:#FE35DE;}
	.st79{clip-path:url(#SVGID_6_);fill:#FE34DC;}
	.st80{clip-path:url(#SVGID_6_);fill:#FE37E0;}
	.st81{clip-path:url(#SVGID_6_);fill:#FE31D8;}
	.st82{clip-path:url(#SVGID_6_);fill:#FE33DA;}
	.st83{clip-path:url(#SVGID_6_);fill:#FEEE13;}
	.st84{clip-path:url(#SVGID_6_);fill:#FE30D5;}
	.st85{clip-path:url(#SVGID_6_);fill:#30FE9E;}
	.st86{clip-path:url(#SVGID_6_);fill:#A2FE17;}
	.st87{clip-path:url(#SVGID_6_);fill:#FE9913;}
	.st88{clip-path:url(#SVGID_6_);fill:#DEFB1C;}
	.st89{clip-path:url(#SVGID_6_);fill:#30CCFE;}
	.st90{clip-path:url(#SVGID_6_);fill:#2FDFF2;}
	.st91{clip-path:url(#SVGID_6_);fill:#F53AF2;}
	.st92{clip-path:url(#SVGID_6_);fill:#FE3BE9;}
	.st93{clip-path:url(#SVGID_6_);fill:#6344FE;}
	.st94{clip-path:url(#SVGID_6_);fill:#6246FE;}
	.st95{clip-path:url(#SVGID_6_);fill:#5F49FE;}
	.st96{clip-path:url(#SVGID_6_);fill:#6047FE;}
	.st97{clip-path:url(#SVGID_6_);fill:#6C3AFE;}
	.st98{clip-path:url(#SVGID_6_);fill:#3CFE8E;}
	.st99{clip-path:url(#SVGID_6_);fill:#FEF630;}
	.st100{clip-path:url(#SVGID_6_);fill:#FED433;}
	.st101{clip-path:url(#SVGID_6_);fill:#F5F936;}
	.st102{clip-path:url(#SVGID_6_);fill:#3BFE8C;}
	.st103{clip-path:url(#SVGID_6_);fill:#6EFE39;}
	.st104{clip-path:url(#SVGID_6_);fill:#FED530;}
	.st105{clip-path:url(#SVGID_6_);fill:#FED62E;}
	.st106{clip-path:url(#SVGID_6_);fill:#73FE37;}
	.st107{clip-path:url(#SVGID_6_);fill:#70FE38;}
	.st108{clip-path:url(#SVGID_6_);fill:#76FE35;}
	.st109{clip-path:url(#SVGID_6_);fill:#FE9817;}
	.st110{clip-path:url(#SVGID_6_);fill:#FE961F;}
	.st111{clip-path:url(#SVGID_6_);fill:#FEB31C;}
	.st112{clip-path:url(#SVGID_6_);fill:#FEAE15;}
	.st113{clip-path:url(#SVGID_6_);fill:#FEB018;}
	.st114{clip-path:url(#SVGID_6_);fill:#FE9523;}
	.st115{clip-path:url(#SVGID_6_);fill:#3BD9FA;}
	.st116{clip-path:url(#SVGID_6_);fill:#EA35F3;}
	.st117{clip-path:url(#SVGID_6_);fill:#ED37F3;}
	.st118{clip-path:url(#SVGID_6_);fill:#F239F2;}
	.st119{clip-path:url(#SVGID_6_);fill:#EF38F3;}
	.st120{clip-path:url(#SVGID_6_);fill:#FED82C;}
	.st121{clip-path:url(#SVGID_6_);fill:#FEB924;}
	.st122{clip-path:url(#SVGID_6_);fill:#FEDC23;}
	.st123{clip-path:url(#SVGID_6_);fill:#FEF21F;}
	.st124{clip-path:url(#SVGID_6_);fill:#FEF01C;}
	.st125{clip-path:url(#SVGID_6_);fill:#E1FB1F;}
	.st126{clip-path:url(#SVGID_6_);fill:#E6FA23;}
	.st127{clip-path:url(#SVGID_6_);fill:#E12FF4;}
	.st128{clip-path:url(#SVGID_6_);fill:#7033FE;}
	.st129{clip-path:url(#SVGID_6_);fill:#4D5CFE;}
	.st130{clip-path:url(#SVGID_6_);fill:#E732F4;}
	.st131{clip-path:url(#SVGID_6_);fill:#E330F4;}
	.st132{clip-path:url(#SVGID_6_);fill:#9EFE1B;}
	.st133{clip-path:url(#SVGID_6_);fill:#FEF52E;}
	.st134{clip-path:url(#SVGID_6_);fill:#78FE34;}
	.st135{clip-path:url(#SVGID_6_);fill:#3AFE8A;}
	.st136{clip-path:url(#SVGID_6_);fill:#FEF52C;}
	.st137{clip-path:url(#SVGID_6_);fill:#FEB61F;}
	.st138{clip-path:url(#SVGID_6_);fill:#FEB721;}
	.st139{clip-path:url(#SVGID_6_);fill:#FEDB25;}
	.st140{clip-path:url(#SVGID_6_);fill:#FEDA28;}
	.st141{clip-path:url(#SVGID_6_);fill:#FED92A;}
	.st142{clip-path:url(#SVGID_6_);fill:#FEF42A;}
	.st143{clip-path:url(#SVGID_6_);fill:#94FE21;}
	.st144{clip-path:url(#SVGID_6_);fill:#E9FA28;}
</style>
<g id="Vector_Smart_Object_1_">
	<g>
		<defs>
			<rect id="SVGID_1_" x="269.5" y="242" width="481.3" height="481.3"/>
		</defs>
		<clipPath id="SVGID_2_">
			<use xlink:href="#SVGID_1_"  style="overflow:visible;"/>
		</clipPath>
		<g class="st0">
			<defs>
				<rect id="SVGID_3_" x="269.5" y="242" width="481.3" height="481.3"/>
			</defs>
			<clipPath id="SVGID_4_">
				<use xlink:href="#SVGID_3_"  style="overflow:visible;"/>
			</clipPath>
			<g class="st1">
				<defs>
					<rect id="SVGID_5_" x="269.5" y="242" width="481.3" height="481.3"/>
				</defs>
				<clipPath id="SVGID_6_">
					<use xlink:href="#SVGID_5_"  style="overflow:visible;"/>
				</clipPath>
				<g class="st2">
					<g>
						<defs>
							<rect id="SVGID_7_" x="269.5" y="242" width="481.3" height="481.3"/>
						</defs>
						<clipPath id="SVGID_8_">
							<use xlink:href="#SVGID_7_"  style="overflow:visible;"/>
						</clipPath>
						<g class="st3">
							<defs>
								<rect id="SVGID_9_" x="269.5" y="242" width="481.3" height="481.3"/>
							</defs>
							<clipPath id="SVGID_10_">
								<use xlink:href="#SVGID_9_"  style="overflow:visible;"/>
							</clipPath>
							<g transform="matrix(1 0 0 1 0 0)" style="clip-path:url(#SVGID_10_);">
								
									<image style="overflow:visible;" width="242" height="242" xlink:href="41F18876.png"  transform="matrix(1.9889 0 0 1.9889 269.5055 241.967)">
								</image>
							</g>
						</g>
					</g>
				</g>
				<path class="st4" d="M585.7,625.8H434.6c-51.4,0-93.5-42.1-93.5-93.5V381.2c0-51.4,42.1-93.5,93.5-93.5h151.2
					c51.4,0,93.5,42.1,93.5,93.5v151.2C679.2,583.8,637.2,625.8,585.7,625.8"/>
				<path class="st5" d="M442.1,535.5c0-1,0.9-1.8,2-1.8c1.1,0,2,0.8,2,1.8c0,1-0.9,1.8-2,1.8C443,537.3,442.1,536.5,442.1,535.5
					 M443,542.5h2v30.1h-2V542.5z"/>
				<path class="st5" d="M487.8,567.9l5.1,4.7l-1.5,1.4l-5.3-4.9c-3.5,2.6-8,4.2-13.2,4.2c-13.1,0-21.4-9.5-21.4-21.5
					c0-12,8.3-21.5,21.4-21.5c13,0,21.4,9.5,21.4,21.5C494.4,558.3,492,564,487.8,567.9 M484.7,567.9l-7.5-6.9l1.6-1.4l7.5,7
					c3.6-3.6,5.7-8.7,5.7-14.6c0-11.4-7.5-19.7-19-19.7c-11.7,0-19,8.2-19,19.7c0,11.3,7.3,19.7,19,19.7
					C477.7,571.5,481.6,570.2,484.7,567.9"/>
				<path class="st5" d="M523,551.5c0-6.3-3.4-8-8.4-8c-4.5,0-9.2,2.7-11.5,5.7v23.5h-2V531h2v16.2c2.4-2.7,7.3-5.5,11.8-5.5
					c6.5,0,10.2,2.6,10.2,9.7v21.2h-2V551.5z"/>
				<path class="st5" d="M555,568.1c-2.8,2.9-7.3,5.4-11.8,5.4c-6.5,0-10.2-2.6-10.2-9.7v-21.2h2v21.2c0,6.3,3.4,8.1,8.4,8.1
					c4.4,0,9.2-2.5,11.5-5.5v-23.7h2v30.1h-2V568.1z"/>
				<path class="st5" d="M578.6,541.8c10,0,15.1,7.4,15.1,15.8v0.6h-28.1c0.2,7.4,5.4,13.5,13.7,13.5c4.6,0,8.3-1.6,11.3-4.6
					l1.2,1.2c-3.3,3.2-7.1,5.1-12.5,5.1c-9.4,0-16-6.7-16-15.8C563.3,548.8,569.8,541.8,578.6,541.8 M565.6,556.5h26
					c0-5.8-4.1-13-13-13C570.2,543.5,565.8,550.6,565.6,556.5"/>
				<path class="st6" d="M599.7,480.1c0,6.4,0,12.8,0,19.2c0,1.2-0.2,1.5-1.5,1.5c-26.9,0-53.7,0-80.6,0c0.3-1.2,1.5-0.7,2.2-1.1
					c2.4-0.2,4.8-0.6,7.2-1.2c3-0.6,6-1.3,8.9-2.3c6.9-2.1,13.4-5.3,19.4-9.3c0.9-0.6,1.8-1.1,2.6-1.8c1.1-0.9,2-0.8,2.9,0.2
					c0.6,0.6,1.2,1.2,1.9,1.6c1.4,1.2,2.7,2.7,4.1,3.9c2.4,1.9,4.4,4.2,6.8,6.1c0.5,0.5,0.9,0.9,1.4,1.4c2.5,2.2,5.6,2.1,7.9-0.2
					c1.9-1.8,3.8-3.7,5.4-5.8c2.6-2.3,4.7-5.1,7.2-7.5c1.3-1.3,2.5-2.6,3.3-4.2C599.1,480.3,599.3,479.9,599.7,480.1"/>
				<path class="st7" d="M429,426.4c-0.1-0.1-0.3-0.2-0.4-0.3v-14.2c0.9-2.6,0.7-5.4,1.4-8.1c0.4-1.7,0.7-3.4,1.2-5.1
					c0.1-0.5,0-1.3,0.8-1.4c0.7-0.5,1.4-0.5,2.2-0.5c5.4,0.7,10.9,0.7,16.3,1.3c0.6,0.3,0.6,0.7,0.1,1c-0.5,0.4-1.2,0.5-1.8,0.7
					c-7.8,2.6-11.9,11.6-8.6,19c0.6,1.4,1.6,2.6,2.6,3.7c0.5,0.5,1.3,1,0.9,1.9c-1.5,0.8-3.2,0.7-4.7,1.3c-2.4,0.4-4.7,1.1-7.1,1.2
					C431,426.8,429.9,427.3,429,426.4"/>
				<path class="st8" d="M500.7,338.1c0.9-0.6,2,0,2.8-0.7h1.1c0.2,0.2,0.5,0.2,0.7,0h1.4c0.7,0.3,1.4,0.3,2.1,0h6.4
					c0.2,0.2,0.5,0.2,0.7,0h1.4c1.7,0.8,3.7,0.3,5.4,1c-0.3,1.2-1.4,1.5-2.4,1.7c-3.8,1-6.9,2.9-9.3,6.1c-1.7,2.2-2.2,4.6-2,7.3
					c0,0.6,0.3,1.3-0.3,1.8c-1.9,0.4-3.7-0.4-5.5-0.5c-1.8-0.3-3.7-0.7-5.5-0.9c-0.6-0.1-1.3-0.2-1.7-0.7c-1.3-3.8-1.2-7.5,0.9-11
					C497.8,340.5,499.2,339.2,500.7,338.1"/>
				<path class="st9" d="M503.2,500.6c-1.2-0.7-2.6-0.5-3.9-0.8c-1.1-0.2-0.8-0.8-0.2-1.3c1.1-0.9,2.2-1.8,3.4-2.5
					c1.4-0.8,2.5-2.2,4.3-2.4c1,0.1,2-0.3,3-0.4c2.7-0.5,5.3-0.1,7.8,0.7c0.7,0.2,1.3,0.5,1.7,1.1c0.2,0.8-0.5,0.9-0.9,1.2
					c-2.3,1-4.4,2.2-6.6,3.3c-0.9,0.5-1.9,0.7-2.8,1.1H506c-0.2-0.2-0.5-0.2-0.7-0.2c-0.3,0-0.5,0-0.7,0.2H503.2z"/>
				<path class="st10" d="M599.7,480.1c-0.9,2-2.3,3.6-3.9,5c-1.2,0-1.1-1-1.3-1.7c-0.6-2.2-1.3-4.2-2.6-6.1
					c-1.7-2.4-3.8-4.1-6.4-5.3c-1.3-0.6-1.2-0.6-1.1-1.6c3.8,0.1,7.6,0.6,11.2,2c1.8,1.3,3.4,2.9,4.2,5V480.1z"/>
				<path class="st11" d="M518.1,496c0.4-0.2,0.7-0.5,1.1-0.7c1.4-1.2,3-1.9,4.9-1.9c0.5,0.6,0.1,1.2-0.3,1.5
					c-1.7,1.4-2.7,3.3-3.9,5.1c-0.6,0.5-1.6-0.1-2.2,0.6h-1.4c-0.2-0.2-0.5-0.2-0.7,0h-0.4c-0.6-0.9-0.1-1.5,0.4-2.2
					C516.3,497.5,517.3,496.8,518.1,496"/>
				<path class="st12" d="M518.1,496c-0.1,1-1,1.4-1.5,2c-0.7,0.7-1.4,1.5-1.3,2.6h-6.4C511.8,498.9,514.9,497.3,518.1,496"/>
				<path class="st13" d="M508.8,337.4c-0.7,0.5-1.4,0.6-2.1,0H508.8z"/>
				<path class="st14" d="M515.9,337.4c-0.2,0.4-0.5,0.4-0.7,0H515.9z"/>
				<path class="st15" d="M505.3,337.4c-0.2,0.4-0.5,0.5-0.7,0H505.3z"/>
				<path class="st16" d="M504.6,500.6c0.1-0.3,0.4-0.3,0.7-0.3c0.1,0.1,0.2,0.1,0.1,0.2c0,0.1-0.1,0.1-0.1,0.1H504.6z"/>
				<path class="st17" d="M505.3,500.6c0-0.1,0-0.2,0-0.3c0.3,0,0.6,0,0.7,0.3H505.3z"/>
				<path class="st18" d="M515.6,500.6c0.2-0.4,0.5-0.4,0.7,0H515.6z"/>
				<path class="st19" d="M584,454.9c-0.2,1.1-0.8,2-1.4,2.8c-0.8,1.2-0.8,2,0.4,2.9c1.2,0.9,2.1,2,3.2,3.1
					c-0.6,0.5-1.2,0.3-1.9,0.2c-1.9-0.4-3.7-0.6-5.6-0.8c-1.7-0.4-3.5-0.2-5.2-0.8c-0.8-0.6-0.9-1.6-1.5-2.3
					c-4.6-5.7-10.1-10.3-16.8-13.4c-1.8-0.9-3.8-1.2-5.8-1.1c-0.8,0-1.7,0.3-2.1-0.8c0.1-0.8,0.8-0.9,1.4-1.2
					c1.4-0.6,2.9-1.1,4.4-1.7c1.9-0.4,3.6-1.4,5.6-1.5c5.5,0.1,10.2,2.2,14.6,5.5C577,448.6,580.6,451.7,584,454.9"/>
				<path class="st20" d="M586.2,387.8c2.4,5.3,4,10.9,4.9,16.7c-1.7,0.7-3.1-0.5-4.6-0.7c-3.7-1.3-7.5-2-11.2-3.3
					c-0.2-0.1-0.3-0.2-0.4-0.4c-0.6-7.1-5.4-11.3-10.9-14.8c-1.4-0.9-1.5-0.9-1.5-1.9c1.8-0.2,3.4,0.4,5.2,0.6c5,1,10,1.8,14.9,2.7
					C583.9,386.8,585.2,386.8,586.2,387.8"/>
				<path class="st21" d="M541.2,343.4c3,1,5.8,2.3,8.4,3.9c0,0.9-0.7,1.1-1.3,1.4c-4.5,2-7.8,5.2-9,10.1c-0.2,0.8-0.6,1.6-1.6,1.6
					c-2,0-3.8-0.6-5.8-0.8c-1.5-0.4-3-0.6-4.5-0.8c-0.6-0.1-1.3-0.1-1.7-0.7c-0.7-2-0.1-3.9,0.6-5.6
					C528.7,346.8,536.6,342.6,541.2,343.4"/>
				<path class="st22" d="M508.8,355.1c-1.7-7.1,3.5-12.3,8.8-14.5c1.7-0.7,3.7-0.8,5.1-2.1c4.1,0.4,8.1,1.3,12,2.8
					c-0.3,1.4-1.6,1-2.4,1.2c-4.8,1.1-8.7,3.6-11.2,7.9c-0.8,1.4-1.2,2.9-1.2,4.6c0,0.7,0.1,1.6-0.5,2.2c-1.9,0.5-3.8-0.4-5.6-0.5
					c-0.6,0-1.1-0.3-1.7-0.3C511,355.9,509.6,356.3,508.8,355.1"/>
				<path class="st23" d="M537.9,360.1c1-0.1,0.9-1,1.1-1.6c1.2-4.9,4.5-8,8.9-10c0.7-0.3,1.3-0.6,1.7-1.1c3.2,1.6,6.2,3.3,8.9,5.7
					c-0.1,0.4-0.4,0.7-0.7,1c-2.8,2.2-5,4.9-5.7,8.6c0,0.2-0.2,0.4-0.4,0.5c-1.9,0-3.7-0.6-5.6-0.9c-2.3-0.4-4.5-0.8-6.8-1.2
					C538.7,360.8,538,360.9,537.9,360.1"/>
				<path class="st24" d="M584,454.9c-1,0.4-1.3-0.4-1.8-0.9c-4.4-4.3-9.1-8.3-14.6-11.2c-2.7-1.4-5.6-2.1-8.7-2.1
					c0.1-0.9,0.9-0.9,1.4-1c1.8-0.5,3.6-0.8,5.4-1.1c1.8-0.2,3.5-0.6,5.3-0.5c6.5,1.2,11.6,4.9,16.3,9.3
					C586.7,450.1,585.2,452.4,584,454.9"/>
				<path class="st25" d="M551.8,362.9c0.2-4.1,2.8-6.8,5.7-9.2c0.3-0.3,0.7-0.5,1-0.7c2.2,1.1,3.9,2.7,5.7,4.3
					c3.2,2.8,6.4,5.7,9,9.2c-0.7,0.7-1.4,0.4-2.2,0.2c-3.6-0.6-7.1-1.3-10.6-1.9c-2.7-0.5-5.4-1-8.1-1.5
					C552.1,363.2,551.9,363,551.8,362.9"/>
				<path class="st26" d="M519.5,356.9c-1.1-8,6.8-14.1,13.2-14.9c0.7-0.1,1.5-0.1,2.1-0.7c2.3,0.3,4.4,1.2,6.4,2.2
					c-2.9,0.5-5.7,1.1-8.3,2.7c-4.4,2.8-7.3,6.4-7.1,11.9c-0.9,0.7-1.9,0.3-2.9,0.1c-0.9-0.1-1.7-0.4-2.6-0.5
					C520,357.5,519.6,357.3,519.5,356.9"/>
				<path class="st27" d="M560.3,364.4c3.8,0.4,7.5,1.3,11.3,1.9c0.5,0.1,1,0.1,1.6,0.2c3.5,3.8,6.3,8,8.7,12.4
					c-1.2,0.7-2.2-0.2-3.3-0.2c-3.3-1-6.8-1.5-10-2.7c-0.8-1.6-1.1-3.4-2.3-4.9c-1.3-1.8-2.7-3.5-4.6-4.8
					C561.1,365.8,560.2,365.4,560.3,364.4"/>
				<path class="st28" d="M592.5,417.6c0.2,2.2,0.1,4.3-0.2,6.5c-0.7,0.5-1.3,0.2-2,0c-1.6-0.5-3.2-0.8-4.7-1.2
					c-2.1-0.5-4.1-0.9-6.2-1.2c-0.6-0.1-1.2-0.1-1.7-0.5c-1.9-2.1-4.5-3.2-6.9-4.4c-1.1-0.5-2.3-0.9-3.4-1.4
					c-0.5-0.2-1.4-0.4-0.6-1.3c2.1-0.6,4.2,0,6.3,0.2c6,0.6,11.9,1.3,17.8,2.4C591.5,416.9,592.1,416.9,592.5,417.6"/>
				<path class="st29" d="M578.8,462.7c2.6-0.1,5,0.7,7.5,1c0.7,0.5,1.5,1,1.9,1.8c-0.1,0.3-0.3,0.5-0.6,0.6
					c-2.8,0.7-5.1,2.3-7.1,4.4c-1.4,0.4-2.8,0.1-4.3,0.2c-2.2-0.4-4.5-0.3-6.8,0c-0.7,0.1-1.5,0.1-2.2-0.2c-0.8-0.5-0.5-1.2-0.2-1.9
					C568.9,464.9,574.6,462.1,578.8,462.7"/>
				<path class="st30" d="M578.8,378.2c1,0.2,2.1,0.5,3.1,0.7c1.7,2.8,3.2,5.7,4.3,8.9c-6.2-1.2-12.3-2.3-18.5-3.5
					c-0.5-0.9,0.2-1.4,0.7-1.9C571.3,379.5,574.8,378.2,578.8,378.2"/>
				<path class="st31" d="M586.6,403.4c1.5,0.4,3,0.7,4.5,1.1c0.6,2.6,0.9,5.2,1,7.8c-0.7,0.3-1.4,0.1-2.1,0
					c-3.7-0.9-7.4-1.7-11.1-2.5c-0.6-0.1-1.3-0.3-1.7-0.8c-0.2-0.4-0.1-0.8,0.1-1.2C578.7,405.2,583.7,402.9,586.6,403.4"/>
				<path class="st32" d="M587.3,447.4c-1.9-0.9-3.4-2.4-5.1-3.7c-3.3-2.6-6.9-4.2-10.9-5.2c0.2-1,1-0.8,1.7-0.9
					c1.8-0.1,3.5-0.1,5.3,0c3.3-0.1,6.6,0.3,9.8,0.8c0.6,0.1,1.3,0.2,1.7,0.8C589.4,442.1,588.3,444.7,587.3,447.4"/>
				<path class="st33" d="M591.9,428.2c-0.1,2.2-0.4,4.3-1,6.4c-0.6,0.4-1,0.1-1.5-0.2c-3.7-2.8-7.7-5-11.9-6.8
					c-0.7-0.3-1.4-0.4-1.9-0.9c-0.4-0.3-1.1-0.7-0.3-1.3c1.1-0.4,2.2-0.2,3.3-0.2c3.7,0.5,7.3,1,11,1.8
					C590.3,427.3,591.2,427.4,591.9,428.2"/>
				<path class="st34" d="M577.4,408.7c4.6,1.1,9.2,2.1,13.8,3.2c0.3,0.1,0.7,0.2,1,0.3c0,1.1,0.1,2.1,0.1,3.2
					c0.4,1.3,0,1.8-1.3,1.5c-3-0.7-6-1.1-8.9-2.1c-1.7-1.9-3.6-3.5-5.8-4.8c-0.6-0.3-1.4-0.8-1-1.8
					C576.1,408,576.7,408.2,577.4,408.7"/>
				<path class="st35" d="M589.4,434.3c0.5,0.1,1,0.3,1.5,0.4c-0.1,1.6-0.5,3.1-1,4.6c-3.8-0.6-7.6-1.1-11.4-1.1
					c-0.7-1,0-1.7,0.5-2.4c1.1-1.6,3-2,4.6-2.9C585.7,432.7,587.6,433,589.4,434.3"/>
				<path class="st36" d="M582,414.4c3,0.7,6.1,1.4,9.1,2.1c1.1,0.3,1.3-0.2,1.2-1.1c0.3,0.7,0.3,1.5,0.2,2.2
					c-3.6-0.8-7.4-1.3-11.1-1.8c-3.8-0.5-7.7-0.9-11.5-1.4c-1.2-0.1-2.4,0-3.5-0.1c-1.9,0.1-3.9,0.7-5.8-0.6
					c0.8-1.4,2.2-1.4,3.5-1.6c1.7-0.3,3.4-0.4,5-0.7c4,0.3,7.8,1.3,11.6,2.2C581.3,413.7,581.5,414.2,582,414.4"/>
				<path class="st37" d="M591.9,428.2c-3.9-0.9-7.9-1.8-11.9-2.1c-0.5,0-1-0.2-1.5-0.4c0.2-1.9,2.3-3.5,4.5-3.5
					c0.9,0,1.7,0,2.6,0.3c2.3,0.1,4.4,1.2,6.7,1.5C592.3,425.5,592.3,426.9,591.9,428.2"/>
				<path class="st38" d="M580.9,470.1c0.7-2,2.5-2.8,4.2-3.6c1-0.5,2.1-0.7,3.1-1.1c2.5,2.2,5,4.3,7.3,6.7c-2.5-0.4-5-0.8-7.5-1.2
					c-1.3-0.2-2.7-0.4-4-0.6C582.9,471.2,581.9,471.1,580.9,470.1"/>
				<path class="st39" d="M454.5,359.6c3.8-3.8,8.1-7.1,12.8-9.8c0.8-0.4,1.6-0.1,2.4,0.1c3.4,1,6.9,1.8,10.4,2.7
					c0.7,0.3,1.6,0.1,1.9,1.1c-0.6,1.1-1.8,1.1-2.8,1.2c-5,0.8-9,3.2-11.1,8c-0.9,2.1-1.2,4.2-0.8,6.4c0.2,1,0.5,2-0.5,2.8
					c-2.4,0.4-4.8-0.1-7.2-0.2c-1.3-0.1-2.6,0-3.8-0.5c-1.2-1-1.5-2.5-1.8-3.9C453.4,364.8,453.2,362.1,454.5,359.6"/>
				<path class="st40" d="M500.7,338.1c-0.3,0.8-0.8,1.4-1.4,2c-3.8,3.3-3.9,7.5-3.3,12c0,0.3,0.1,0.6,0.1,0.9c-1.2,1-2.4,0-3.6,0.1
					c-5.2-0.9-10.3-1.8-15.6-2.4c-2.1-0.4-4.1-0.8-6.2-1.1c-0.6-0.1-1.3-0.2-1.6-0.9c7.1-4.4,14.8-7.3,22.9-9.2
					C494.8,338.8,497.7,338.2,500.7,338.1"/>
				<path class="st41" d="M434.2,397.3c-0.7,0-1.5,0-2.2,0c-0.3-0.4-0.3-0.9-0.1-1.4c2.7-8.9,6.6-17.2,12.2-24.6
					c2.4-0.6,4.7-0.1,6.9,0.8c-0.2,1.3-1.3,1.1-2.1,1.3c-4.6,1.2-7.9,3.9-9.7,8.3c-1.7,4.4-1.2,8.6,1.7,12.4
					c0.3,0.4,0.6,0.7,0.9,1.1c0.7,1,0.7,1.7-0.6,2.2c-1.6,0.3-3.2-0.3-4.7-0.2C435.6,397.2,434.9,397,434.2,397.3"/>
				<path class="st42" d="M451,372.5c-2.3-0.7-4.6-0.8-6.9-1.1c0.3-0.3,0.5-0.7,0.8-1c3.6-0.3,7.2-0.6,10.7,0.7
					c3.8,0.2,7.6,0.5,11.4,0.7c1.7-0.9,3.3,0.1,5,0c2.4,1,4.7,2.4,6.9,3.9c0.5,0.4,1.1,0.8,0.5,1.6c-1.1,0.5-2.1-0.1-3.2-0.2
					c-2.7-0.6-5.4-0.8-8.1-1.4c-3.3-0.7-6.7-1.2-10-1.7c-1.8-0.4-3.6-0.5-5.3-0.9C452.1,373,451.5,373,451,372.5"/>
				<path class="st43" d="M455.6,371c-3.6-0.3-7.2-0.1-10.7-0.7c2.8-4,6-7.6,9.6-10.7c-0.2,2.8-0.8,5.5,0.1,8.3
					C454.8,368.9,455.2,370,455.6,371"/>
				<path class="st44" d="M469.1,348.7c2.6,0.5,5.2,1,7.8,1.5c1.2,0.8,2.9,1,3.2,2.8c-4.3-1.1-8.5-2.1-12.8-3.2
					C467.8,349.3,468.4,348.9,469.1,348.7"/>
				<path class="st45" d="M432.2,426.5c2.4-0.4,4.7-0.7,7.1-1.1c1.4-0.3,2.9-0.1,4.4-0.6c0.9-0.3,1.8,0,2.7,0.4
					c0.3,1.1-0.8,1.2-1.3,1.5c-3,1.6-5.4,3.8-6.9,6.9c-2,3.9-1.1,7.6,1.2,11c1.1,1.6,2.5,3,4,4.3c0.7,0.5,1.5,1,1,2.2
					c-2.6,1.2-5.2,2-8.1,2c-3.9-8.2-6.2-16.9-7.1-25.9C430,426.4,431.2,426.9,432.2,426.5"/>
				<path class="st46" d="M475.8,492.9c-3.4-1.4-6.6-3.2-9.6-5.3c-3.1-4.3-2.4-11.2,1.5-15.5c0.5-0.5,1-1,1.4-1.6
					c1.6-1.5,3.7-2,5.6-3.1c0.6-0.2,1.2-0.8,2-0.4c0.3,0.9-0.5,1.4-0.9,2c-3.2,4.1-4.1,8.6-1.8,13.4c1,2.2,2.5,4.1,4.5,5.6
					c0.7,0.5,1.3,1,1.6,1.9c0,1-0.9,1.3-1.4,1.8C477.7,492.1,477,493.1,475.8,492.9"/>
				<path class="st47" d="M436.1,453.1c2.7-0.7,5.4-1.4,8.1-2.2c0.8-0.7,1.8-0.8,2.7-1.1c2.2-0.5,4.4-1.1,6.6-1.6
					c1.1-0.2,2.1-0.8,3.3-0.3c0.3,1-0.6,1-1.1,1.1c-5.7,1.5-8.4,5.6-9.1,11.1c-0.4,3.9,1.1,7.4,3.7,10.3c1.1,1.2,2.2,2.3,3.4,3.4
					c0.4,0.4,0.9,0.7,0.9,1.4c-0.5,1-1.3,1.2-2.3,1.1c-2.6-2.3-4.8-5-6.9-7.7C441.9,463.9,438.6,458.8,436.1,453.1"/>
				<path class="st48" d="M469.4,470.5c-0.2,1.2-1.4,1.7-2,2.6c-2.6,3.7-3.5,7.8-1.9,12.2c0.3,0.8,0.5,1.6,0.7,2.4
					c-4.6-2.7-8.6-6-12.4-9.7c-0.1-0.8,0.6-0.9,1.1-1.2c4.4-2,8.8-3.9,13.2-6C468.5,470.5,469,470.2,469.4,470.5"/>
				<path class="st49" d="M498.2,499.6c-3.4-0.3-6.7-1.1-10-2.1c-0.3-1.4,0.6-2.3,1.1-3.4c0.7-1.3,1.8-2.3,2.5-3.6
					c1.8-1.9,4.4-2.6,6.5-4.1c1.2-0.4,2-1.8,3.5-1.3c0.3,0.9-0.2,1.5-0.7,2.1c-2.5,3.2-3.6,6.7-2.8,10.7
					C498.6,498.5,498.6,499.1,498.2,499.6"/>
				<path class="st50" d="M498.2,499.6c0-2-0.8-3.9-0.4-6c0.5-2.7,1.7-4.9,3.3-7c0.4-0.5,0.7-0.9,0.6-1.6c0.8-1.3,2.3-1.6,3.5-2.4
					c0.5-0.1,1-0.9,1.6-0.3c0.2,1-0.5,1.6-1,2.3c-1.9,2.3-3,4.8-3.5,7.7c-0.2,1.4,0.3,2.7,0.2,4c-1.1,0.8-2.1,1.7-3.2,2.5
					c-0.6,0.4-0.5,0.7,0,1C498.8,499.9,498.5,499.9,498.2,499.6"/>
				<path class="st51" d="M475.8,492.9c0.8-0.5,1.7-1,2.5-1.4c3.9-1.8,7.9-2.2,11.9-0.4c0.6,1-0.4,1.2-0.9,1.5
					c-2,1.2-4.1,2.2-6.1,3.4C480.7,495.1,478.2,494.2,475.8,492.9"/>
				<path class="st52" d="M469.4,470.5c-4.9,2.3-9.8,4.5-14.8,6.7c-0.3,0.2-0.6,0.3-0.8,0.6c-0.6-0.3-1-0.8-1.4-1.3
					c0.7-0.3,1.4-0.7,2.1-1c1.9-1.5,4.3-2.3,6.5-3.4c1.8-0.6,3.2-1.9,5-2.5c2-0.7,3.8-1.9,5.7-2.8c0.4-0.1,0.8-0.3,1.3-0.2
					c0.7,0.2,1.4,0.2,1.8,1C473.1,468.8,471.2,469.5,469.4,470.5"/>
				<path class="st53" d="M483.3,496c0.1-0.9,0.9-1,1.4-1.4c1.9-1.1,3.8-2.1,5.7-3.2c0.4-0.7,0.9-1.2,1.8-0.7
					c-0.2,1.2-1.3,1.8-1.8,2.7c-0.8,1.3-1.6,2.7-2.1,4.2C486.5,497.1,484.9,496.7,483.3,496"/>
				<path class="st54" d="M432.2,426.5c-1,0.4-2,0.7-3.1,0.7c0-0.3,0-0.6,0-0.8C430.1,426.4,431.1,426.4,432.2,426.5"/>
				<path class="st55" d="M562.6,487.2c-1.3-0.5-1.9-2.7-3.4-2.3c-1.3,0.3-2.4,1.5-3.5,2.3c-1.2,0.1-2.3,0.4-3.5,0
					c-0.6-0.3-0.8-0.8-1.1-1.4c-2.8-5-7.3-6.9-12.7-7.3c-1-0.1-2,0.2-2.9-0.4c-0.2-0.9,0.6-1,1.1-1.2c1.1-0.5,2.2-0.9,3.4-1.4
					c2.4-0.7,4.6-1.8,7.1-2c0.2,0,0.4,0,0.6,0c3.5,0.3,6.9,0.9,9.9,2.8c3.5,2.2,5.5,5.4,6.3,9.4c0.1,0.6,0.1,1.2-0.4,1.6
					C563.2,487.4,562.9,487.3,562.6,487.2"/>
				<path class="st56" d="M580.9,470.1c1,0.4,2.1,0.4,3.2,0.4c1.1,1.2,2.8,1.4,4.1,2.3c3.5,2.4,5.4,5.7,6.6,9.7c0.2,0.9,0,2,1,2.5
					c-2.2,2.6-4.5,5.1-7,7.5c-0.7,0.2-1.3,0-1.7-0.6c-0.2-0.7,0-1.4,0.2-2.1c2-6.2-2.1-15.4-9.1-18c-0.8-0.3-1.9-0.4-1.9-1.7
					C577.8,470.1,579.4,470.1,580.9,470.1"/>
				<path class="st57" d="M587.3,491.8c0.5,0.2,1,0.5,1.5,0.7c-1.9,2-3.6,4.2-5.6,6.1c-2.8,2.8-6.5,2.2-9.8-1.4
					c0.6-3.2,3.1-4.4,5.7-5.6c1.6-0.7,3.3-0.6,5-0.9C585.3,490.7,586.4,491,587.3,491.8"/>
				<path class="st58" d="M552.1,486.8c1.2,0.1,2.4-0.3,3.5,0.3c-6,4.1-12.5,7.3-19.4,9.3c-0.7-0.6-0.8-0.7-0.4-1.6
					c1-2,2.1-3.9,4-5.1c0.9-0.6,1.7-1.2,2.6-1.9C545.6,487,548.8,486.3,552.1,486.8"/>
				<path class="st59" d="M584.1,491.1c-0.4,0.1-0.8,0.3-1.2,0.3c-4.3,0.1-7.5,2-9.5,5.8c-2.2-2-4.5-4.1-6.7-6.1
					c-0.5-1.2,0.5-1.4,1.1-1.7c1.2-0.7,2.6-0.9,3.9-1.5c1.3-0.3,2.5,0.2,3.8,0.4c2.4,0.6,4.8,1,7.2,1.8
					C583.2,490.2,584,490.2,584.1,491.1"/>
				<path class="st60" d="M542.2,488.2c-0.3,1.2-1.5,1.4-2.3,2c-1.8,1.4-2.9,3.3-3.8,5.3c-0.2,0.4-0.2,0.7,0.2,0.9
					c-2.9,1.2-5.9,1.9-9,2.4c-0.5-1.2,0.2-2,0.7-2.9c1.2-2.4,3.1-4.3,5.3-5.9c1.6-1,3.5-1.1,5.3-1.6
					C539.8,488.2,541,487.4,542.2,488.2"/>
				<path class="st61" d="M533.3,490.4c-1.4,1.6-3.3,2.7-4.3,4.7c-0.7,1.2-1.4,2.4-1.7,3.8c-2.4,0.6-4.9,1.1-7.4,1.2
					c0.4-1.8,1.4-3.3,2.8-4.6c0.6-0.5,1.4-1,1.4-1.9c0-0.9,0.9-0.8,1.3-1.2c2-0.8,4.1-1.4,6.1-2.1
					C532.1,490.1,532.8,489.8,533.3,490.4"/>
				<path class="st62" d="M571.7,488.2c-0.8,0.7-1.8,0.7-2.7,1.1c-0.9,0.4-2.1,0.4-2.3,1.8c-1.4-1.3-2.7-2.6-4.1-3.9
					c0.3,0,0.6,0,0.9-0.1c0.9-0.7,1.9-0.5,2.9-0.4c1.3,0.2,2.6,0.2,3.8,0.5C570.8,487.4,571.6,487.3,571.7,488.2"/>
				<path class="st63" d="M443.9,424.3c-1.7-1.9-3.6-3.7-4.5-6.3c-1.8-5.4-0.7-10.1,2.9-14.3c2-2.4,4.5-4.1,7.7-4.7
					c0.4-0.1,0.7-0.4,1-0.6c0.6-0.6,1.3-0.6,2-0.5c2.4,0.2,4.7,0.4,7.1,0.4c0.4,0,0.8,0.1,1.2,0.4c0.6,1.5-0.6,1.6-1.4,1.8
					c-3.6,1.1-6.4,3.2-8.3,6.5c-2.7,4.5-2.9,9-0.4,13.6c0.4,0.8,1.3,1.5,0.6,2.5C449.1,423.8,446.6,424.8,443.9,424.3"/>
				<path class="st64" d="M461.3,399.1c-0.3-0.1-0.5-0.4-0.8-0.3c-3.2,0.2-6.3-0.5-9.5-0.4c-5.6,0-11.2-0.6-16.7-1.1
					c2.4-0.7,4.8-0.1,7.2-0.4c2.4-1.1,5-0.8,7.5-0.8c2.9-0.1,5.8-0.1,8.7,0c1.7-0.1,3.3,0,5,0c1.6,0,3.2-0.2,4.8,0.2
					c0.5,1.3,0.1,2.3-1.3,3.3C464.5,399.5,462.8,400.1,461.3,399.1"/>
				<path class="st65" d="M443.9,424.3c2.6-0.5,5.2-0.9,7.8-1.4c0.4-0.4,0.8-0.7,1.3-0.8c2.6-0.5,5.3-0.9,7.9-1.3
					c0.5-0.1,1.1,0,1.5,0.3c0.4,0.7,0.4,1.4,0.1,2.2c-0.5,0.8-1.4,0.8-2.2,0.8c-1.2,0-2.4,0.4-3.6,0.4c-2.6,0.3-5.2,0.5-7.8,0.9
					c-0.8,0.1-1.7,0.3-2.6-0.1c-2.4-0.5-4.8,0.6-7.1,0C440.7,424.7,442.3,424.5,443.9,424.3"/>
				<path class="st66" d="M508.8,355.1c1,0.6,2.2,0.2,3.2,0.8c2.6,1.4,5,3,6.7,5.5c0.3,0.5,0.9,1,0.3,1.7c-0.4,0.2-0.9,0.2-1.4,0.1
					c-2.8-0.9-5.8-1.2-8.6-2.4c-1.4-2-3.1-3.8-5.3-5.1c-0.5-0.3-1.1-0.6-0.7-1.3C505.1,354.3,506.9,355.1,508.8,355.1"/>
				<path class="st67" d="M503.2,354.4c0.1,1,1.2,1,1.8,1.5c1.6,1.3,3.3,2.6,4.3,4.5c-0.3,0.3-0.7,0.3-1.1,0.3
					c-2.8-0.7-5.6-1.4-8.4-2.1c-0.7-0.3-1.4-0.3-2-0.8c-1.2-1.5-2.5-2.9-4.2-3.8c-0.5-0.3-1.2-0.6-1-1.4c1.2,0.1,2.4,0.2,3.5,0.3
					c1.9,0.7,4,0.7,6,1.1C502.4,354.1,502.9,354,503.2,354.4"/>
				<path class="st68" d="M502.5,496.4c-1.6-3.5-0.2-6.6,1.4-9.6c0.5-1,1.3-1.9,2.1-2.8c0.4-0.5,0.8-1,0.8-1.7
					c0.9-1.3,2.4-1.7,3.7-2.5c0.8-0.5,1.7-0.9,2.6-1.4c0.3-0.1,0.7-0.4,1,0.1c0.2,0.6-0.2,1-0.5,1.4c-2.9,3.3-4.5,7-4.2,11.4
					c0,0.2-0.1,0.5-0.1,0.7c-0.6,1-1.4,1.9-2.8,1.9C505,494.6,503.9,495.8,502.5,496.4"/>
				<path class="st69" d="M506.4,493.9c0.8-0.6,1.7-1.2,2.5-1.8c0.6-1,1.6-1.5,2.7-1.8c4.2-1.1,8.4-1.1,12.5,0.8
					c0.7,0.3,1.8,0.5,1.5,1.8c-0.5,0.2-0.9,0.5-1.4,0.7c-1.7,0.6-3.3,1.2-5,1.8c-3.4-2-7.1-2.1-10.8-1.3
					C507.6,494.2,507,494.5,506.4,493.9"/>
				<path class="st70" d="M547.5,444.6c0.3,0.4,0.8,0.4,1.3,0.3c4.2-0.3,7.9,1.3,11.2,3.5c3.6,2.4,6.9,5,9.9,8.2
					c1.5,1.5,3.2,3,3.5,5.3c-0.7,0.7-1.5,0.6-2.3,0.6c-2.4,0-4.7,0-7.1,0c-2-0.4-3.9,0.7-5.9,0.1c-2.9-2.8-6-5.4-9.4-7.6
					c-3.9-2.6-8.1-3.9-12.8-3.4c-0.6,0.1-1.2,0.1-1.6-0.5c0.1-1,1-1.2,1.7-1.6c1.2-0.7,2.5-1.2,3.7-2c2.2-1.2,4.6-2.1,6.9-3.2
					C546.9,444.2,547.3,444.3,547.5,444.6"/>
				<path class="st71" d="M563.9,462c3.2,0,6.4,0,9.6,0c1.8,0.1,3.6,0.2,5.3,0.7c-4.1,0.3-7.7,1.7-10.4,4.9
					c-0.6,0.7-1.4,1.5-1.4,2.6c-1.1,0.8-2.4,0.7-3.7,0.8c-0.7,0.1-1.5,0-2.2,0.3c-2.2,0.1-4.4,0.9-6.7,0.9c-1-0.7-0.5-1.6-0.1-2.4
					C556.2,465.6,559.5,463.1,563.9,462"/>
				<path class="st72" d="M565.6,438.9c-2,0.5-4,0.9-6,1.4c-0.3,0.1-0.5,0.2-0.8,0.4c-2,0-3.7,1.3-5.7,1.4c-0.7-2.3,0.5-4.1,1.5-6
					c0.2-0.4,0.6-0.7,0.9-1.1c0.6-0.9,0.6-2.1,1.6-2.7c4.8-1,9.7-1.2,14.6-1.1c0.7,0,1.4-0.1,2,0.6c0,0.6-0.5,0.6-0.8,0.7
					c-3.5,0.6-6.1,2.3-7.1,5.9C565.9,438.6,565.8,438.7,565.6,438.9"/>
				<path class="st73" d="M556.1,435.3c-2.1,1.8-2.4,4.3-2.8,6.7c-1.8,1-4,1.2-5.7,2.5c-0.4,0-0.7,0-1.1,0c-0.8-1.3-0.5-2.6-0.2-3.9
					c0.7-3,2.5-5.1,4.8-7c0.6-0.6,1.3-0.6,2-0.7C554.5,433.3,555.5,434.1,556.1,435.3"/>
				<path class="st74" d="M562.4,383.5c2.7,1.9,5.6,3.4,7.9,5.9c2.7,2.9,5.1,6.1,4.9,10.4c-0.7,0.5-1.4,0.2-2,0.1
					c-1.8-0.5-3.6-0.9-5.4-1.5c-3-0.9-6.1-1.7-9.1-2.5c-0.7-0.2-1.4-0.3-1.9-0.8c-1.2-3.7-3.2-6.8-6-9.4c-1.4-1.3-3.1-2.4-4.7-3.5
					c-0.5-0.4-1.6-0.7-0.7-1.7c1.9-0.2,3.6,0.4,5.5,0.6c3.2,0.6,6.5,1,9.7,1.6C561.2,382.8,562,382.8,562.4,383.5"/>
				<path class="st75" d="M562.4,383.5c-3.7-0.6-7.4-1.2-11.1-1.9c-0.2,0-0.4-0.2-0.6-0.3c2.9-4.1,6.8-6.1,11.7-6.5
					c0.7-0.1,1.2-0.3,1.9-0.5c1.5,0.1,3,0.1,4.2,1.3c3.4,0.8,6.9,1.7,10.3,2.5c-2.6,0.7-5.4,1.1-7.7,2.6c-1.4,0.9-2.7,1.8-3.3,3.5
					C566,384,564.2,383.8,562.4,383.5"/>
				<path class="st76" d="M577.4,408.7c-0.7-0.1-1.4-0.2-2.1-0.3c-0.1,0.1-0.2,0.2-0.3,0.2c-3.3-0.3-6.6-0.8-9.7-2
					c0-0.1-0.1-0.2-0.1-0.3c1.4-3.1,6.7-6.2,10-6.1c3.9,0.8,7.7,1.8,11.3,3.2C582.8,404,579.4,405.1,577.4,408.7"/>
				<path class="st77" d="M575.2,400.2c-3.6,0.6-6.4,2.4-8.8,5.1c-0.3,0.4-0.8,0.7-1.2,1c-0.3,0.3-0.6,0.4-0.9,0.4
					c-2.3-0.4-4.7-0.4-6.8-1.4c-0.2-0.4,0-0.8,0.2-1.1c2.7-3.2,5.6-5.9,10.1-6c2.5,0.6,5,1.2,7.5,1.8
					C575.2,400,575.2,400.1,575.2,400.2"/>
				<path class="st78" d="M520.2,357.3c1.9-0.1,3.7,0.8,5.7,0.7c2,0.4,4,0.9,6.1,1.3c3.1,1.6,5.9,3.6,7.7,6.8
					c0.4,0.7,1.2,1.4,0.4,2.4c-1.7,0.4-3.2-0.5-4.8-0.8c-0.7-0.1-1.4-0.3-2.1-0.5c-1.7-0.6-3.6-0.7-5.3-1.5c-1.5-3-3.8-5.3-6.6-7
					C520.7,358.3,520.1,358,520.2,357.3"/>
				<path class="st79" d="M540.1,368.2c-1.2-3.4-3.6-5.8-6.6-7.6c-0.6-0.4-1.3-0.6-1.5-1.4l6,0.8c0.4,0.5,1,0.3,1.5,0.4
					c3.5,1.7,6.2,4.2,8.1,7.6c0.4,0.8,1.1,1.5,0.3,2.4c-0.8,0.4-1.5,0.1-2.2-0.2c-1.4-0.5-2.8-0.7-4.2-1.1
					C540.9,369.1,540.1,369.1,540.1,368.2"/>
				<path class="st80" d="M520.2,357.3c1.8,1.6,4.1,2.7,5.6,4.7c0.8,1,2,1.9,1.8,3.4c-0.9,0.4-1.7,0-2.5-0.2c-1.5-0.4-3-0.8-4.6-1.2
					c-0.6-0.2-1.4-0.1-1.4-1c-1.2-2.4-3.1-4.1-5.3-5.5c-0.7-0.4-1.5-0.6-1.8-1.5c2.5,0.3,5,0.7,7.5,1
					C519.7,357,520,357.1,520.2,357.3"/>
				<path class="st81" d="M551.8,362.9c0.1,0,0.2,0.1,0.4,0.1c3.7,1.7,6,4.8,8,8.2c0.5,0.8,0.9,1.7,0.1,2.6c-2.1,0.1-4-0.6-5.9-1.3
					c-1.4-2.4-2.5-5-4.7-6.9c-0.9-0.8-1.8-1.5-2.7-2.2c-0.5-0.3-1.3-0.5-0.8-1.4C548.1,361.9,549.9,362.3,551.8,362.9"/>
				<path class="st82" d="M546.1,361.8c0,0.8,0.7,0.8,1.2,1.1c3.1,2,5.3,4.8,6.8,8.1c0.1,0.3,0.1,0.7,0.2,1
					c-0.2,0.1-0.3,0.2-0.5,0.2c-1.6-0.2-3.1-0.7-4.6-1c-0.5-0.1-1.2-0.1-1.2-0.9c-0.9-2.9-2.6-5.2-4.9-7.1c-1.2-1-2.7-1.5-3.6-2.8
					C541.6,361,543.9,361.1,546.1,361.8"/>
				<path class="st83" d="M565.6,438.9c-0.3-3.5,4.4-7.2,8.2-6.8c0.4-0.4,0.9-0.5,1.5-0.5c2.4-0.1,4.8,0.3,7.2,0.7
					c0.4,0.1,1,0.2,1,0.8c-0.4,0.8-1.2,0.8-1.8,1.2c-1.6,0.8-3,1.8-3.1,3.8c-2.4,0.2-4.8-0.5-7.1,0.4
					C569.4,438.3,567.5,439,565.6,438.9"/>
				<path class="st84" d="M560.3,373.6c-0.1-2.9-2.2-4.7-3.8-6.8c-1.2-1.6-3.1-2.3-4.4-3.8c2.8,0.1,5.5,0.7,8.2,1.4
					c0.4,0.9,1.4,1.3,2.1,1.8c2.6,1.8,4.1,4.4,5.6,6.9c0.5,0.8,0.4,1.7,0.4,2.6c-1.4-0.3-2.8-0.7-4.3-1
					C562.8,374.7,561.4,374.7,560.3,373.6"/>
				<path class="st85" d="M560.6,413.7c1,0.7,2.1,0.2,3.2,0.3c0.9,0.1,1.7-0.1,2.5,0.4c1.2,1,2.8,1.2,4.2,1.8c2.4,1,4.5,2.5,6.8,3.7
					c0.3,0.2,0.4,0.5,0.4,0.9c-0.8,0.7-1.7,0.5-2.6,0.3c-4.4-0.6-8.9-0.5-13.3-0.5c-1,0-2,0.2-2.9-0.4c-0.9-2.1-0.6-4.3-0.5-6.6
					C559.2,413.1,559.9,413.1,560.6,413.7"/>
				<path class="st86" d="M575.2,420.8c0.8,0,1.7,0,2.5,0c2.4,0.5,4.7,0.9,7.1,1.4c0.3,0.1,0.5,0.2,0.8,0.3
					c-2.9-0.1-5.6,0.1-7.1,3.2c-1.2,0-2.4,0-3.6,0c-2.2,0.4-4.4,0.3-6.6-0.1c-0.8-0.7-0.4-1.5,0-2.2
					C569.6,421.2,572.1,420.3,575.2,420.8"/>
				<path class="st87" d="M561,470.8c2-0.5,4-0.5,6-0.7c3.1,0.3,6.2-0.8,9.2,0c0.4,0.7,1.1,0.8,1.7,1.1c5.8,2.3,8.8,6.7,10,12.6
					c0.6,2.8-0.2,5.3-0.8,7.9l-3.2-0.7c-2.5-1.1-5.2-1.5-7.8-2.1c-0.3-0.1-0.5-0.2-0.8-0.3c-0.2-3.1-0.5-6.1-1.9-8.9
					c-2.2-4.4-5.9-6.8-10.6-7.7C562.3,471.8,561.2,472.1,561,470.8"/>
				<path class="st88" d="M568.1,425.4c2.2,0.1,4.5-0.3,6.7,0.4c0.8,1.2,2.2,1.2,3.4,1.7c3.7,1.6,7.1,3.6,10.5,5.8
					c0.3,0.2,0.7,0.4,0.7,0.9c-2-0.4-3.9-1.1-6-1.1c-3.1-0.9-6.3-1.1-9.6-1.1c-0.5-0.6-1.2-0.3-1.8-0.4c-3-1.9-6.2-3.3-9.7-4.2
					c-0.8-0.2-2-0.1-2-1.5C562.8,425.1,565.5,425.1,568.1,425.4"/>
				<path class="st89" d="M557.4,404.8c2.6,0.7,5.2,1.2,7.8,1.4c3.3,0.7,6.7,1.4,10,2.2c1,1.5,2.7,2,4.1,3c1.1,0.8,2.1,1.7,2.7,3
					c-4.3-0.9-8.4-2-12.8-2.5c-3.7-0.2-7.3-1.1-11-1.8c-1.4-1.5-1.4-3.3-1.5-5.2C556.9,404.6,557.2,404.6,557.4,404.8"/>
				<path class="st90" d="M558.2,409.8c3.7,0.5,7.4,1.1,11,2.1c-2.8,0.7-5.8,0.5-8.6,1.8c-0.7,0-1.3,0-2,0
					C557.8,412.5,557.4,411.2,558.2,409.8"/>
				<path class="st91" d="M472.3,372.2c-1.8-0.2-3.6-0.3-5.3-0.5c0.2-2.2-0.7-4.3-0.2-6.5c1.3-5.7,5-8.9,10.3-10.5
					c1.6-0.5,3.3-0.2,4.8-1.1c1.5-0.4,8.4,1.2,9.7,2.4c-0.5,1-1.5,0.8-2.3,1c-4.2,0.6-7.8,2.1-10.4,5.7c-1.5,2-2.2,4.2-2.2,6.8
					c0,1.1,0.3,2.3-0.5,3.2C474.7,373.4,473.6,372.2,472.3,372.2"/>
				<path class="st92" d="M491.4,356.2c-3.1-1.1-6.4-1.8-9.6-2.5c-0.5-0.6-1.3-0.3-1.8-0.7c-0.7-1.4-2.5-1.5-3.2-2.8
					c5.2,0.6,10.5,1.4,15.6,2.5c0.5,1.1,1.8,1.3,2.7,2c1.1,0.8,2.1,1.7,2.7,3C495.5,358.1,493.5,357.1,491.4,356.2"/>
				<path class="st93" d="M448.9,396.6l-7.4,0.3c1-0.7,0.1-1.3-0.3-1.7c-2.4-2.7-3.5-5.9-3.3-9.6c0.3-5.2,3-8.7,7.3-11.3
					c1.8-1.1,3.8-1.4,5.8-1.8c2.4,0.1,4.8,0.6,7.1,1.1c-0.1,1.1-1.1,1.1-1.8,1.4c-5.7,2.1-9.6,7.8-9.5,13.8c0,2,0.7,3.8,1.5,5.6
					C448.7,395,449.4,395.7,448.9,396.6"/>
				<path class="st94" d="M448.9,396.6c-0.3-0.8-0.6-1.5-1-2.3c-2.8-5.5-1.8-11.3,2.5-15.7c2-2,4-3.8,6.9-4.4
					c0.3-0.1,0.6-0.4,0.9-0.6c3.3,0.4,6.7,0.8,9.9,1.8c0,0.9-0.7,0.9-1.3,1.1c-4.6,1.8-7.9,4.9-9.5,9.6c-0.9,2.7-0.7,5.6,0.1,8.3
					c0.2,0.7,0.7,1.4,0.4,2.2C454.8,396.6,451.8,396.6,448.9,396.6"/>
				<path class="st95" d="M467.6,396.7c-1.6,0-3.3,0-4.9-0.1c-1.7-1.9-1.6-4.2-1.5-6.5c0.2-7.3,7.8-14,15-13.3
					c1.1,0.1,2.1,0.2,3.2,0.4c1.8-0.4,3.5,0.2,5.2,0.8c0.5,1.2-0.6,1.4-1.1,1.7c-4.4,3-8.2,6.7-11.4,11c-1.1,1.5-2.1,3-3,4.6
					C468.7,395.8,468.4,396.5,467.6,396.7"/>
				<path class="st96" d="M476.2,376.8c-3.6,0.4-7,1.3-9.8,3.9c-4.8,4.5-6,9.8-3.7,15.9h-5c-2.4-5.6-2.1-10.9,1.9-15.7
					c1.9-2.2,4.2-4,7-4.8c0.5-0.2,1-0.3,1.4-0.7C470.8,375.6,473.5,376,476.2,376.8"/>
				<path class="st97" d="M484.7,378.2c-1.8-0.4-3.5-0.7-5.3-1.1c0-0.6-0.4-0.9-0.9-1.2c-2.1-1.2-4.1-2.5-6.2-3.7
					c1.3-0.3,2.6,0.5,3.9,0.2c2-1,4,0.1,6,0c0.7,0,1.4,0.2,2.1,0.2c2.8,0.3,5.5,0.3,8.2,0.9c0.7,0.4,0.4,0.9-0.1,1.1
					c-2.5,1.1-4.9,2.6-7.5,3.6C484.9,378.3,484.8,378.2,484.7,378.2"/>
				<path class="st98" d="M446.4,425.4c2.3-0.4,4.6-0.8,6.8-1c1.2-0.1,2.3-0.3,3.4-0.4c0.1,1-0.8,1.2-1.4,1.5
					c-2.1,1.1-4,2.3-5.4,4.2c-3.9,5.4-2.6,11,1.5,15.8c0.9,1,2.4,1.6,2.5,3.3c-2.8,0.7-5.7,1.4-8.5,2c-0.3,0.1-0.7,0.1-1,0.1
					c-0.1-0.9-0.9-1.3-1.5-1.8c-3.4-2.7-5.7-6.1-6.2-10.5c-0.2-2,0.5-3.9,1.5-5.7c1.7-3.2,4.2-5.3,7.4-6.8
					C445.7,425.9,446,425.6,446.4,425.4"/>
				<path class="st99" d="M479.7,490c-1.3-1.8-3.2-2.9-4.5-4.6c-4.1-5.5-4-11.8,0.4-17c0.4-0.4,0.9-0.8,0.9-1.5
					c0.2-0.6,0.7-0.8,1.1-1c2-1,4-2,6-3c0.5-0.2,0.9-0.5,1.5-0.2c0.3,1-0.3,1.6-0.8,2.2c-4.2,4.9-3.3,12.4,1.3,16.7
					c0.8,0.7,1.7,1.4,2.1,2.5c-0.2,1.4-1.6,1.7-2.5,2.6c-1.3,1-2.6,2-4,2.9C480.8,489.9,480.4,490.5,479.7,490"/>
				<path class="st100" d="M479.7,490c2-0.9,3.5-2.5,5.3-3.6c3.9-1.9,7.9-1.6,12-0.5c0.6,0.2,1.1,0.3,1.5,0.8
					c-2,1.5-4.5,2.3-6.4,3.9c-0.6,0.2-1.2,0.5-1.8,0.7c-3.5-1.5-7.1-1.1-10.7-0.3c-0.5,0.1-0.9,0.2-1.4,0.3
					C478.8,490.9,479.3,490.5,479.7,490"/>
				<path class="st101" d="M485.1,462.7l-8.5,4.3c-0.6,0.2-1.2,0.5-1.8,0.7c-0.6-0.2-1.2-0.5-1.8-0.7c0-0.7,0.5-0.9,1-1.1
					c1.5-0.7,2.8-1.6,4.3-2.4c2.4-1,4.5-2.5,6.9-3.5c1.2,0,2.1,0.5,2.5,1.6C486.9,462.3,486.2,462.9,485.1,462.7"/>
				<path class="st102" d="M453.8,448.8c-1.7-2.2-3.9-3.9-5.2-6.4c-3.8-7.1-0.1-14.5,6.5-17.4c0.6-0.3,1.2-0.4,1.6-1.1
					c1.9-0.3,3.8-0.1,5.6-0.7c0.7,0.6,0.9,1.4,0.6,2.3c-2.4,1.8-4.3,3.8-5,6.8c-0.9,3.7,0.2,7,2.2,10c0.6,0.9,1.3,1.7,2,2.5
					c0.5,0.5,1.1,1,0.7,1.8c-0.8,0.6-1.8,0.8-2.8,1c-1,0-1.9,0.7-2.9,0.3C455.9,448.1,454.9,448.5,453.8,448.8"/>
				<path class="st103" d="M457,448.1c0.9-0.4,1.8-0.6,2.8-0.7c0.3,1-0.5,1.5-1.1,2c-2.1,1.9-3.8,4.1-4.4,7c-1,4.7,0.8,8.5,3.7,12
					c0.7,0.9,1.6,1.6,2.4,2.4c0.4,0.5,1,0.8,0.9,1.6c-2.2,1-4.3,2.3-6.7,3c-0.9-1.6-2.3-2.6-3.6-3.8c-3.1-2.9-4.6-6.5-4.8-10.5
					c-0.1-3,1-5.9,3-8.4C451.3,450.2,454,449,457,448.1"/>
				<path class="st104" d="M498.5,486.8c-1.9-0.1-3.6-1-5.5-1.1c-2.4-0.2-4.7,0-6.9,0.7c-0.3,0.1-0.7,0-1.1,0.1l2.5-2.1
					c1.2-1.4,2.6-2.6,4.4-3.1c3.9-1.2,7.7-1,11.4,0.3c0.8,0.3,1.6,0.5,1.9,1.4c-1.2,0.7-2.4,1.4-3.6,2.1
					C500.7,485.6,499.6,486.2,498.5,486.8"/>
				<path class="st105" d="M505.3,482.9c-3.8-2-7.7-2.5-11.9-1.5c-0.5,0.1-1,0.7-1.6,0.1c-0.2-0.8,0.4-1.1,0.9-1.4
					c2-1.2,3.6-3,5.8-4c4.3-1.3,8.5-1,12.6,0.6c0.9,0.4,2,0.6,2,1.9c-2.1,1.2-4.3,2.4-6.4,3.6C506.2,482.4,505.9,482.9,505.3,482.9"
					/>
				<path class="st106" d="M471.9,467.2c-1.9,0.9-3.8,1.9-5.7,2.8c-3.4-2.9-6.2-6.1-7-10.7c-0.7-4.3,0.4-8,3.3-11.3
					c0.8-0.8,1.6-1.5,2.4-2.3c1.3-0.9,2.9-1.2,4.4-1.4c0.6,0.2,0.9,0.7,0.9,1.3c-0.1,0.6-0.5,1-0.9,1.5c-3.7,4.2-4.2,9.5-1.3,14.4
					c0.8,1.4,1.8,2.6,2.9,3.8C471.6,465.8,472.4,466.3,471.9,467.2"/>
				<path class="st107" d="M465.2,446c-1.1,1.2-2.2,2.2-3.2,3.5c-4.2,5.6-2.9,12.7,1.6,17.5c0.9,1,2.2,1.6,2.6,3
					c-1.8,0.5-3.2,1.8-5,2.4c-2.2-2.5-4.8-4.6-6.3-7.8c-2.8-6.1-1.2-11.6,3.6-15.7c0.6-0.5,1-0.9,1.3-1.6c0.9-0.3,1.9-0.5,2.8-0.8
					C463.4,445.8,464.2,445.5,465.2,446"/>
				<path class="st108" d="M471.9,467.2c-0.7-1.8-2.4-2.7-3.4-4.2c-3.6-5.5-3.8-12.5,1.3-16.9c0.1-0.1,0.2-0.3,0.3-0.4
					c1.8,0.9,2.6,2.6,3.4,4.3c-1,4.6,0.5,8.4,3.5,11.8c0.5,0.6,1.2,1.2,1.3,2.1l-5.4,3.1C472.6,467,472.3,467.1,471.9,467.2"/>
				<path class="st109" d="M561,470.8c0.4,0.5,0.9,0.6,1.5,0.7c9,1.1,13.1,8.2,13.4,15.5c0,0.5-0.1,1-0.4,1.5
					c-1.3-0.1-2.6-0.3-3.9-0.4c-2.7-0.8-5.4-1-8.2-1.1c-0.1-5.1-3.8-10-8.7-11.8c-2.1-0.8-4.1-1.3-6.3-1.3c-0.4,0-0.7,0-0.9-0.4
					c0-0.1,0-0.3,0-0.3c2.1-1.1,4.3-1.9,6.7-1.4C556.5,471.4,558.7,470.8,561,470.8"/>
				<path class="st110" d="M542.2,488.2c-1.2,0-2.4,0.3-3.6,0.7c-3.7-3.4-8.1-4.8-13.1-4.5c-0.9,0.1-1.9,0.2-2.8-0.3
					c-0.5-0.8,0.3-0.9,0.6-1.2c2.8-1.4,5.6-2.8,8.5-4.2c1.2-0.2,2.1-1.5,3.5-0.8c4.3-0.2,8.4,0.4,12.1,3c2.2,1.5,3.6,3.5,4.6,5.9
					C548.8,487.3,545.5,487.4,542.2,488.2"/>
				<path class="st111" d="M535.5,477.9c-1.3-0.1-2.2,1.2-3.5,1.1c-0.5-0.5-0.3-1.1-0.2-1.7c0.6-3.2,2-6,4.4-8.3
					c0.6-0.6,1.3-1.2,1.8-1.9c0.2-0.2,0.4-0.4,0.7-0.5c2.3-0.9,4.7-1.4,7-2.2c0.6-0.1,1.2-0.4,1.9-0.1c0.4,0.7-0.2,1.1-0.7,1.4
					c-3.6,2.3-5.5,5.6-6.4,9.6c0,0.2-0.2,0.3-0.3,0.4C538.6,476.7,536.8,476.9,535.5,477.9"/>
				<path class="st112" d="M554.3,471.9c-2.3,0.5-4.6,0.8-6.7,1.8c-0.1,0-0.2,0-0.4,0c-0.7-0.8-0.3-1.7,0-2.5c1.1-3,3-5.3,5.6-7.1
					c0.6-0.4,1.3-0.8,1.8-1.4c1-0.7,2.1-0.7,3.3-0.4c2,0.3,4-0.6,6-0.3c-1.3,1.1-3,1.3-4.3,2.3C556.9,466.3,554.7,468.4,554.3,471.9
					"/>
				<path class="st113" d="M554.6,463c-1.2,1.6-3.2,2.3-4.4,3.9c-1.6,2-3,4.1-3,6.8c-2.4,0.7-4.7,1.4-7.1,2.1c0.4-4,2.3-7.2,5.5-9.7
					c0.7-0.5,1.6-0.8,2-1.7C549.7,463.1,552,462.3,554.6,463"/>
				<path class="st114" d="M522.7,484c3.9,0,7.9-0.4,11.6,1.5c1.7,0.9,3.6,1.5,4.4,3.5c-1.8,0.3-3.6,0.7-5.3,1.4
					c-2.7,0.5-5.2,1.6-7.8,2.5c0-0.8-0.7-0.9-1.2-1.1c-3.7-1.8-7.5-2.1-11.4-1.2c-0.5,0.1-1,0.2-1.6,0.2c-0.1-0.9,0.7-1,1.2-1.3
					c1.3-0.9,2.7-1.7,4-2.5c1.5-0.8,2.8-1.8,4.4-2.5C521.5,484.1,522,483.7,522.7,484"/>
				<path class="st115" d="M462.2,421.1l-10.5,1.7c-0.7-2-2.1-3.6-2.5-5.8c-1.1-5.2,1.1-11.3,5.4-14.4c1.6-1.2,3.3-2.2,5.3-2.7
					c0.5-0.1,1.2-0.2,1.4-0.9c1.7,0.2,3.4-0.4,5,0.3c0.5,0.7,0.1,1.4-0.2,2c-2.2,5.6-3.3,11.4-3.2,17.4
					C462.9,419.7,463.1,420.6,462.2,421.1"/>
				<path class="st116" d="M522,372.1c-4.7-0.9-9.3-1.4-14.1-1.3c-0.7,0.3-1.5,0-2.2,0.3c-0.5,0-1,0.1-1.4,0.1
					c-0.7-1.2,0.3-2,0.9-2.7c3.3-3.9,7.5-5.7,12.6-5.4c0.5,0,0.9,0,1.4,0c2.8,0.8,5.7,1.6,8.5,2.5c1.8,0.4,3.6,0.7,5.3,1.4
					c0.1,0.7-0.5,0.7-0.9,0.8C528.2,367.9,524.8,369.4,522,372.1"/>
				<path class="st117" d="M517.7,362.9c-2,0.6-4.2,0.6-6.2,1.4c-2.8,1.1-5,2.8-6.7,5.2c-0.4,0.5-0.7,1-0.6,1.6
					c-3.4,0.8-6.9,1.3-10.2,2.5c-1.1,0-1-0.8-0.9-1.4c0.1-3.2,1.7-5.7,4.1-7.8c3.1-2.7,6.9-3.7,11-3.9h1.1c2.5,1,5.2,1.3,7.8,2.1
					C517.2,362.6,517.5,362.8,517.7,362.9"/>
				<path class="st118" d="M484.3,373.2l-8.2-0.7c-0.2-3.9,0-7.6,2.8-10.8c2.7-3.1,6.2-4.6,10.1-5.1c0.8-0.1,1.6-0.2,2.4-0.4
					c2.2,0.1,4.2,1.2,6.4,1.4c0.5,0.4,1.3,0.1,1.8,0.7c-0.3,1.2-1.3,1-2.1,1.1c-2.5,0.3-4.8,1.1-6.9,2.4c-3.1,1.9-4.8,4.7-5.4,8.3
					C485,371.2,485,372.3,484.3,373.2"/>
				<path class="st119" d="M484.3,373.2c0.3-8.4,4.9-13,13.3-14.1c0.7-0.1,1.4-0.2,1.9-0.7c2.9,0.4,5.7,1.2,8.5,2.1
					c-1.2,0.9-2.8,0.7-4.2,1.1c-4.5,1.1-8,3.5-9.9,7.9c-0.6,1.3-1.1,2.8-0.1,4.2c-0.3,0.3-0.6,0.4-1,0.4
					C490.1,373.7,487.2,373.4,484.3,373.2"/>
				<path class="st120" d="M513.1,478.6c-0.3-0.6-0.7-0.9-1.3-1.2c-3.8-1.5-7.7-2.3-11.7-1.3c-0.6,0.2-1.2,0.4-1.9,0.3
					c0.3-1.5,1.9-1.8,2.8-2.7c2.2-1.3,3.9-3.5,6.4-4.4c5.1-1.1,9.9-0.3,14.4,2.4c0.6,0.4,1.3,0.6,1.6,1.3c0.1,1.4-1.3,1.3-2,1.9
					c-1.9,0.9-3.7,1.9-5.6,2.8c-0.6,0.3-1.2,0.8-2,0.5C513.6,478.4,513.3,478.5,513.1,478.6"/>
				<path class="st121" d="M513.8,478.3c2.5-1.2,4.8-2.6,7.5-3.6c0.4,0.5,0.1,0.9-0.2,1.3c-2.9,3.2-4.2,7-4.4,11.2
					c-1.8,1.2-3.6,2.4-5.3,3.5c-0.8,0.5-1.7,0.9-2.5,1.4c-0.5-5.1,1.2-9.4,4.7-13C513.7,478.9,513.7,478.6,513.8,478.3"/>
				<path class="st122" d="M529.7,456.7c-0.8-0.5-1.5-1.1-2-1.8c2-1.7,4.1-3.3,6.7-3.9c0.2,0.3,0.5,0.4,0.8,0.3
					c7-1.2,12.4,1.9,17.6,6.1c1.4,1.1,2.9,2.2,4.2,3.5c0.4,0.4,0.9,0.8,0.9,1.4c-1,0.7-2.2,0-3.2,0.7c-2.5,0-4.7,0.9-7.1,1.4
					c-0.6,0.1-1.2,0.2-1.8,0.3c-3.3-2.4-6.4-5.2-10.3-6.6C533.5,457.5,531.5,457.5,529.7,456.7"/>
				<path class="st123" d="M534.4,451c-2.2,1.3-4.5,2.6-6.7,3.9c-1.3-1-2.6-2-3.2-3.6c-0.9-2.3-0.5-4.5,1.2-6.4
					c1.4-1.5,2.9-3,4.3-4.5c2.4-1.6,5.1-2.2,7.7-3.2c1-0.4,2.1-0.7,3.1-1.1c1-0.2,1.9-0.9,2.9-0.4c0.3,0.7,0,1.2-0.5,1.6
					c-2.7,2.6-3.6,5.9-3.4,9.5c0,0.4,0,0.7-0.1,1.1C538.3,449.3,536,449.6,534.4,451"/>
				<path class="st124" d="M539.7,447.8c-1-3.7-0.1-6.9,2.2-9.9c0.6-0.7,1.6-1.1,1.7-2.2c2.4-1.5,5-2.3,7.8-1.8
					c-0.6,1.2-2,1.6-2.8,2.7c-1.7,2.4-2.5,5-2.2,8C544.4,446,542,446.8,539.7,447.8"/>
				<path class="st125" d="M557,432.8c0.5-2.1,1-4.3,1.4-6.4c0.6-0.4,1.2-0.6,1.8,0c3.5,1.1,7.1,2,10.3,3.9c0.6,0.3,1.4,0.5,1.4,1.4
					c-4.6-0.2-9.2,0.3-13.8,0.7C557.8,432.5,557.4,432.7,557,432.8"/>
				<path class="st126" d="M551.4,433.9c-2.7,0.2-5.2,1.1-7.8,1.8c-0.9,0.2-1.9,0.5-2.8,0.7c-1.8,0.1-3.5-0.6-5.2-1.1
					c-0.3-0.1-0.5-0.3-0.4-0.7c0.4-0.7,1-1.3,1.7-1.8c3.2-1.8,6.7-2.9,10.2-3.9c0.6-0.2,1.1-0.3,1.7,0c1.7,1.3,3.2,2.7,4.6,4.2
					C552.9,433.9,551.9,433.2,551.4,433.9"/>
				<path class="st127" d="M560.3,373.6c1.3,0.4,2.6,0.7,3.9,1.1c-0.5,0.5-1.1,0.7-1.7,0.7c-4.3,0.3-7.9,1.9-10.6,5.4
					c-0.3,0.4-0.7,0.7-1.2,0.7c-1.9-0.2-3.8-0.5-5.6-0.7c-1.3,0.5-2.5,0.3-3.7-0.5c-0.5-1.7,0.7-2.7,1.7-3.6
					c3.1-2.8,6.6-4.5,10.9-4.5c0.1,0,0.2,0,0.4,0C556.3,372.6,558.3,373.1,560.3,373.6"/>
				<path class="st128" d="M541.5,380c1.1,0.6,2.4,0.3,3.6,0.7c0.7,1.1,2,1.6,3.1,2.4c4.1,3.1,7.6,6.5,8.6,11.8
					c-1.8,0.7-3.3-0.3-4.9-1.1c-3.5-5.4-7.7-10-12.9-13.8C539.8,379.3,540.7,379.3,541.5,380"/>
				<path class="st129" d="M551.9,393.8c1.6,0.4,3.3,0.7,4.9,1.1c3.4,0.9,6.8,1.9,10.2,2.9c0.3,0.1,0.5,0.2,0.8,0.4
					c-3.4,0.8-6.3,2.4-8.7,5c-0.6,0.6-0.8,1.5-1.6,1.8c-0.2,0-0.4,0-0.6,0C555.6,401,553.9,397.3,551.9,393.8"/>
				<path class="st130" d="M522,372.1c1-2.3,3.2-2.9,5.1-3.9c1.9-0.9,3.9-0.8,5.9-1.4c2.4,0.1,4.7,1.3,7.1,1.4
					c1.8,0.9,3.9,0.8,5.7,1.8c-0.5,1-1.5,0.9-2.3,1.1c-1.8,0.4-3.5,1-5.1,1.9c-1.8,0.9-3.2,2.1-4,4
					C530.5,374.9,526.3,373.3,522,372.1"/>
				<path class="st131" d="M534.4,377c-0.3-1.7,0.9-2.6,2.1-3.4c2.4-1.7,5.1-2.7,7.9-3.2c0.5-0.1,0.9-0.3,1.3-0.4
					c0.7,0.1,1.4,0.2,2.1,0.4c1.9,1,4.2,0.7,6,1.8c-1.7,0.5-3.5,0.8-5.2,1.5c-3.1,1.3-6.1,2.8-7.3,6.4c-0.8,0-1.7,0-2.5,0
					C537.5,379,535.9,378,534.4,377"/>
				<path class="st132" d="M560.3,426.5l-1.8,0l0.5-6.4c3.5,0,7.1-0.1,10.6,0c1.9,0.1,3.8,0.1,5.7,0.7c-2.5,0-4.8,0.5-6.4,2.7
					c-0.4,0.6-0.8,1.2-0.7,1.9c-2.1,0.7-4.3,0.1-6.4,0.7C561.3,426.2,560.7,426,560.3,426.5"/>
				<path class="st133" d="M487.6,461.6c0.8,0.2,1.5,0.6,2.1,1.1c-0.1,1.2-0.8,2.2-1.2,3.3c-1.8,4.8-0.2,8.6,2.9,12.2
					c0.6,0.7,1.6,1.1,1.5,2.3c-0.5,0.2-0.8,0.6-1.1,1.1c-1.4,0.9-2.8,1.9-4.3,2.8c-1.6-2.2-4-3.7-5.1-6.3c-2.1-4.7-1.8-9.1,1.4-13.3
					c0.5-0.6,1.1-1.2,1.2-2.1C485.9,462.3,486.7,461.7,487.6,461.6"/>
				<path class="st134" d="M473.3,449.9c3.5,3.9,7.5,7.3,11.8,10.2c-2.1,1.5-4.4,2.6-6.8,3.6c-3.2-2.9-5.2-6.5-5.7-10.8
					C472.6,451.9,473,450.9,473.3,449.9"/>
				<path class="st135" d="M462.6,425.7c1,6.7,3.4,13,6.8,18.8c-1.4,0.5-2.8,1-4.3,1.5c-0.8,0.2-1.7,0.4-2.5,0.6
					c-1-2-2.8-3.4-3.9-5.4c-3.1-5.8-2-11.3,3-15.6C462.1,425.5,462.4,425.6,462.6,425.7"/>
				<path class="st136" d="M492.9,480.4c-1.1-1.6-2.7-2.7-3.7-4.5c-2.7-4.7-2.6-8.4,0.6-13.3c2.5,0.9,5,1.9,7.5,2.8
					c0,2.7,1.5,4.9,2.9,7.1c0.3,0.5,0.8,0.8,0.9,1.5c-0.7,1.1-2,1.5-2.8,2.5C496.4,477.8,494.6,479.1,492.9,480.4"/>
				<path class="st137" d="M538.3,467.3c-1,1.1-2.1,2.2-3.1,3.4c-2,2.4-2.9,5.3-3.3,8.4c-2.6,1.7-5.5,2.8-8.2,4.2
					c-0.8-1.1-0.4-2.3-0.2-3.4c0.6-3.8,2.9-6.6,5.5-9.2c0.3-0.4,0.7-0.6,1.1-0.8c2-0.8,4-1.6,6-2.4
					C536.8,467.2,537.5,466.7,538.3,467.3"/>
				<path class="st138" d="M529.4,470.8c-0.3,0.4-0.6,0.8-1,1.2c-3.2,3.1-4.9,6.8-4.7,11.2c-0.4,0.2-0.7,0.5-1.1,0.7l-6,3.2
					c-0.8-1.7-0.2-3.4,0.4-4.9c0.8-2.3,1.7-4.6,3.6-6.3c0.4-0.3,0.7-0.7,0.7-1.2c0.7-0.5,1.4-0.9,2.1-1.4
					C525.2,472.1,527,470.6,529.4,470.8"/>
				<path class="st139" d="M529.7,456.7c4.9,0.1,9.1,2.1,12.8,5.1c1.1,0.9,2.8,1.4,3.3,3c-2.4,0.7-4.7,1.4-7.1,2.1
					c-1.8-1.2-3.4-2.6-5.3-3.7c-0.4-0.2-0.9-0.6-0.7-1.3c1.4-0.6,1.6-1.2,0.3-2.2C531.7,458.9,530.7,457.7,529.7,456.7"/>
				<path class="st140" d="M532.6,462c1.5,1.7,3.9,2.4,5.5,4.1c0.2,0.3,0.5,0.4,0.6,0.8c-0.1,0.1-0.2,0.2-0.4,0.4
					c-2.3,0.6-4.5,1.6-6.7,2.5c-0.5,0.2-1,0.4-1.5,0.4c-1,0.2-1.5-0.6-2.1-1c-1.3-0.8-2.7-1.4-4.1-2.1c-0.5-0.3-1.6-0.5-0.6-1.5
					C526.6,464.6,529.6,463.3,532.6,462"/>
				<path class="st141" d="M523.4,465.5c-0.4,0.7,0.1,0.8,0.7,1.1c2.2,0.9,4.3,2,6.1,3.5c-0.2,0.2-0.5,0.5-0.7,0.7
					c-2.2,0.4-3.9,1.9-6,2.5c-4.6-2.9-9.4-4.8-14.9-3.6c-0.4,0.1-0.9,0-1.4,0c0.4-1.5,1.8-1.8,2.8-2.5l3.4,0c0.7-0.3,1.5,0,2.2-0.3
					C518.2,466.5,520.8,466,523.4,465.5"/>
				<path class="st142" d="M509.9,467.3c-0.7,1.1-2,1.5-2.8,2.5c-2.2,1.2-3.7,3.2-6,4.3c-2.4-1.9-3.3-4.6-4.2-7.3
					c-0.1-0.4-0.1-0.9,0.4-1.2C501.4,466.7,505.6,466.9,509.9,467.3"/>
				<path class="st143" d="M548.7,428.9c-3.5,0.9-6.9,2.2-10.2,3.5c-0.5,0.2-1.1,0.5-1.7,0.4c1.2-1.3,2.3-2.7,3.6-3.9
					C542.8,426.6,546.2,426.6,548.7,428.9"/>
				<path class="st144" d="M535.1,434.7c1.8,0.9,3.9,0.8,5.7,1.7c-3.6,1.3-7.3,2.6-10.9,3.9C531.6,438.4,533.4,436.6,535.1,434.7"/>
				<path class="st117" d="M505.7,371c0.7-0.5,1.5-0.2,2.2-0.3C507.2,371.2,506.4,371,505.7,371"/>
				<path class="st120" d="M515.6,467c-0.7,0.5-1.5,0.2-2.2,0.3C514.1,466.9,514.8,467,515.6,467"/>
			</g>
		</g>
	</g>
</g>
</svg>
